<svg width="156" height="167" viewBox="0 0 156 167" fill="none" xmlns="http://www.w3.org/2000/svg">
<g filter="url(#filter0_dd_7_21)">
<path d="M78.3165 140.885C78.3165 140.885 49.4009 128.597 33.6083 92.3407C20.4132 62.0477 18.7166 40.4231 18.7249 34.453C18.7265 33.3834 19.095 29.0315 24.5211 27.0163L75.7983 10.6423C77.4363 10.1192 79.1967 10.1192 80.8347 10.6423L132.112 27.0163C137.288 29.1987 137.845 33.3974 137.762 34.4644C137.229 41.3225 134.393 68.6728 121.69 96.678C107.009 129.041 78.3165 140.885 78.3165 140.885Z" fill="url(#paint0_radial_7_21)"/>
</g>
<path d="M78.6505 40.1625C96.614 40.1627 111.199 54.7479 111.199 72.7114C111.199 90.6747 96.6139 105.26 78.6505 105.26C60.687 105.26 46.1018 90.6748 46.1017 72.7114C46.1017 54.7478 60.6869 40.1625 78.6505 40.1625Z" fill="url(#paint1_linear_7_21)" stroke="#3B82F6" stroke-width="0.519"/>
<path d="M78.6502 39.9028C96.7571 39.9028 111.459 54.6042 111.459 72.7111C111.459 90.818 96.7571 105.519 78.6502 105.519C60.5433 105.519 45.8419 90.818 45.8419 72.7111C45.8419 54.6042 60.5433 39.9028 78.6502 39.9028Z" stroke="url(#paint2_linear_7_21)" stroke-width="5.19" stroke-miterlimit="10"/>
<path d="M78.6507 55.8107C83.3141 55.8109 86.9709 59.4675 86.971 64.131V72.9503H84.0579V64.131C84.0579 61.0726 81.7089 58.724 78.6507 58.7238C75.5921 58.7238 73.2425 61.0725 73.2424 64.131V67.3038H70.3294V64.131C70.3294 59.4674 73.987 55.8107 78.6507 55.8107Z" fill="#38AEFA" stroke="#38AEFA" stroke-width="0.519"/>
<path d="M77.1932 78.7849L77.117 78.7087C76.6374 78.2294 76.3358 77.5999 76.3358 77.0007C76.336 75.7694 77.4188 74.6872 78.6502 74.6872C79.8816 74.6872 80.9644 75.7694 80.9647 77.0007C80.9647 77.5999 80.6623 78.2293 80.1824 78.7087L80.1063 78.7849V81.2917C80.1063 81.7496 79.956 82.1089 79.7117 82.3532C79.4674 82.5975 79.1082 82.7477 78.6502 82.7477C78.1923 82.7477 77.8331 82.5975 77.5887 82.3532C77.3443 82.1089 77.1932 81.7496 77.1932 81.2917V78.7849Z" fill="white" stroke="#38AEFA" stroke-width="0.519"/>
<path d="M70.0701 67.8229H87.2312C90.0029 67.8231 92.1189 69.9398 92.1189 72.7116V84.7243C92.1187 87.4959 90.0028 89.6118 87.2312 89.612H70.0701C67.2983 89.612 65.1816 87.496 65.1814 84.7243V72.7116C65.1814 69.9397 67.2982 67.8229 70.0701 67.8229ZM78.6501 74.1676C77.1321 74.1677 75.8162 75.4834 75.8162 77.0016C75.8163 77.7314 76.1636 78.4481 76.6746 78.9928V81.2917C76.6746 81.8665 76.8661 82.365 77.2214 82.7204C77.5768 83.0758 78.0753 83.2672 78.6501 83.2672C79.225 83.2672 79.7235 83.0758 80.0789 82.7204C80.4343 82.365 80.6257 81.8665 80.6257 81.2917V78.9928C81.1367 78.4481 81.484 77.7314 81.4841 77.0016C81.4841 75.4834 80.1682 74.1676 78.6501 74.1676Z" fill="url(#paint3_linear_7_21)" stroke="#38AEFA" stroke-width="0.519"/>
<defs>
<filter id="filter0_dd_7_21" x="0.724884" y="0.249969" width="155.044" height="166.635" filterUnits="userSpaceOnUse" color-interpolation-filters="sRGB">
<feFlood flood-opacity="0" result="BackgroundImageFix"/>
<feColorMatrix in="SourceAlpha" type="matrix" values="0 0 0 0 0 0 0 0 0 0 0 0 0 0 0 0 0 0 127 0" result="hardAlpha"/>
<feOffset dy="4"/>
<feGaussianBlur stdDeviation="2"/>
<feColorMatrix type="matrix" values="0 0 0 0 0 0 0 0 0 0 0 0 0 0 0 0 0 0 0.3 0"/>
<feBlend mode="normal" in2="BackgroundImageFix" result="effect1_dropShadow_7_21"/>
<feColorMatrix in="SourceAlpha" type="matrix" values="0 0 0 0 0 0 0 0 0 0 0 0 0 0 0 0 0 0 127 0" result="hardAlpha"/>
<feMorphology radius="6" operator="dilate" in="SourceAlpha" result="effect2_dropShadow_7_21"/>
<feOffset dy="8"/>
<feGaussianBlur stdDeviation="6"/>
<feColorMatrix type="matrix" values="0 0 0 0 0 0 0 0 0 0 0 0 0 0 0 0 0 0 0.15 0"/>
<feBlend mode="normal" in2="effect1_dropShadow_7_21" result="effect2_dropShadow_7_21"/>
<feBlend mode="normal" in="SourceGraphic" in2="effect2_dropShadow_7_21" result="shape"/>
</filter>
<radialGradient id="paint0_radial_7_21" cx="0" cy="0" r="1" gradientUnits="userSpaceOnUse" gradientTransform="translate(78.057 75.7584) rotate(90) scale(62.1204 62.1204)">
<stop stop-color="#3B82F6"/>
<stop offset="0.5" stop-color="#33C1FB"/>
<stop offset="1" stop-color="#3B82F6"/>
</radialGradient>
<linearGradient id="paint1_linear_7_21" x1="78.576" y1="39.588" x2="78.576" y2="105.204" gradientUnits="userSpaceOnUse">
<stop stop-color="white"/>
<stop offset="0.5" stop-color="#F3F3F3"/>
<stop offset="1" stop-color="#E6E6E6"/>
</linearGradient>
<linearGradient id="paint2_linear_7_21" x1="78.6502" y1="39.9028" x2="78.6502" y2="105.519" gradientUnits="userSpaceOnUse">
<stop stop-color="#3B82F6"/>
<stop offset="1" stop-color="#234C90"/>
</linearGradient>
<linearGradient id="paint3_linear_7_21" x1="78.6502" y1="67.5631" x2="78.6502" y2="89.8718" gradientUnits="userSpaceOnUse">
<stop stop-color="#38AEFA"/>
<stop offset="1" stop-color="#3B82F6"/>
</linearGradient>
</defs>
</svg>
