<svg width="120" height="131" viewBox="0 0 120 131" fill="none" xmlns="http://www.w3.org/2000/svg">
<path d="M60.3165 130.885C60.3165 130.885 31.4009 118.597 15.6083 82.3407C2.41322 52.0477 0.716607 30.4231 0.724914 24.453C0.72647 23.3834 1.09496 19.0315 6.52111 17.0163L57.7983 0.642335C59.4363 0.119181 61.1967 0.119181 62.8347 0.642335L114.112 17.0163C119.288 19.1987 119.845 23.3974 119.762 24.4644C119.229 31.3225 116.393 58.6728 103.69 86.678C89.0094 119.041 60.3165 130.885 60.3165 130.885Z" fill="url(#paint0_linear_4_320)"/>
<path d="M60.6502 29.9028C78.7571 29.9028 93.4585 44.6042 93.4585 62.7111C93.4585 80.818 78.7571 95.5194 60.6502 95.5194C42.5433 95.5194 27.8419 80.818 27.8419 62.7111C27.8419 44.6042 42.5433 29.9028 60.6502 29.9028Z" fill="url(#paint1_linear_4_320)"/>
<path d="M60.6502 29.9028C78.7571 29.9028 93.4585 44.6042 93.4585 62.7111C93.4585 80.818 78.7571 95.5194 60.6502 95.5194C42.5433 95.5194 27.8419 80.818 27.8419 62.7111C27.8419 44.6042 42.5433 29.9028 60.6502 29.9028Z" stroke="#38AEFA" stroke-width="5.19" stroke-miterlimit="10"/>
<path d="M55.5023 54.131C55.5023 51.2158 57.735 48.983 60.6502 48.983C63.5654 48.983 65.7987 51.2158 65.7987 54.131V57.326V63.2094H69.2309V57.2336V54.131C69.2309 49.324 65.4572 45.5509 60.6502 45.5509C55.8432 45.5509 52.0696 49.324 52.0696 54.131V57.5632H55.5023V54.131Z" fill="#38AEFA"/>
<path d="M63.2245 67.0011C63.2245 65.6263 62.0251 64.4274 60.6502 64.4274C59.2754 64.4274 58.076 65.6263 58.076 67.0011C58.076 67.6842 58.417 68.376 58.9339 68.8924V71.2917C58.9339 72.3245 59.6174 73.0075 60.6502 73.0075C61.683 73.0075 62.366 72.3245 62.366 71.2917V68.8924C62.883 68.376 63.2245 67.6842 63.2245 67.0011Z" fill="white"/>
<path d="M69.2308 57.5631H52.0696C49.1544 57.5631 46.9216 59.7959 46.9216 62.7111V74.7239C46.9216 77.6391 49.1544 79.8718 52.0696 79.8718H69.2308C72.1461 79.8718 74.3788 77.6391 74.3788 74.7239V62.7111C74.3788 59.7959 72.1461 57.5631 69.2308 57.5631ZM62.366 68.8924V71.2917C62.366 72.3245 61.683 73.0075 60.6502 73.0075C59.6174 73.0075 58.9344 72.3245 58.9344 71.2917V68.8924C58.4175 68.376 58.076 67.6842 58.076 67.0012C58.076 65.6263 59.2754 64.4274 60.6502 64.4274C62.025 64.4274 63.2245 65.6263 63.2245 67.0012C63.2245 67.6842 62.883 68.376 62.366 68.8924Z" fill="#38AEFA"/>
<defs>
<linearGradient id="paint0_linear_4_320" x1="60.057" y1="3.638" x2="60.057" y2="127.879" gradientUnits="userSpaceOnUse">
<stop stop-color="#35D3FC"/>
<stop offset="0.5" stop-color="#33C1FB"/>
<stop offset="1" stop-color="#31AEFA"/>
</linearGradient>
<linearGradient id="paint1_linear_4_320" x1="60.576" y1="29.588" x2="60.576" y2="95.2041" gradientUnits="userSpaceOnUse">
<stop stop-color="white"/>
<stop offset="0.5" stop-color="#F3F3F3"/>
<stop offset="1" stop-color="#E6E6E6"/>
</linearGradient>
</defs>
</svg>
