<svg width="519" height="519" viewBox="0 0 519 519" fill="none" xmlns="http://www.w3.org/2000/svg">
<path d="M259.764 507.914C259.764 507.914 150.217 461.357 90.3859 324.002C40.3963 209.236 33.9686 127.311 34.0001 104.694C34.006 100.641 35.402 84.1542 55.9591 76.5193L250.223 14.4865C256.429 12.5045 263.098 12.5045 269.304 14.4865L463.568 76.5193C483.177 84.7874 485.287 100.694 484.973 104.737C482.953 130.719 472.212 234.336 424.084 340.434C368.467 463.042 259.764 507.914 259.764 507.914Z" fill="url(#paint0_linear_2_197)"/>
<path d="M261.028 125.34C329.626 125.34 385.323 181.036 385.323 249.635C385.323 318.233 329.626 373.929 261.028 373.929C192.43 373.929 136.733 318.233 136.733 249.635C136.733 181.036 192.43 125.34 261.028 125.34Z" fill="url(#paint1_linear_2_197)"/>
<path d="M261.028 125.34C329.626 125.34 385.323 181.036 385.323 249.635C385.323 318.233 329.626 373.929 261.028 373.929C192.43 373.929 136.733 318.233 136.733 249.635C136.733 181.036 192.43 125.34 261.028 125.34Z" stroke="#38AEFA" stroke-width="5.19" stroke-miterlimit="10"/>
<path d="M297.051 317.68H225.004C211.392 317.68 200.356 306.646 200.356 293.033V292.19C200.356 264.847 222.519 242.684 249.862 242.684H272.194C299.537 242.684 321.7 264.847 321.7 292.19V293.033C321.7 306.646 310.664 317.68 297.051 317.68Z" fill="#38AEFA"/>
<path d="M261.238 228.779C242.506 228.779 227.321 213.593 227.321 194.861C227.321 176.129 242.506 160.944 261.238 160.944C279.971 160.944 295.156 176.129 295.156 194.861C295.156 213.593 279.971 228.779 261.238 228.779Z" fill="#38AEFA"/>
<defs>
<linearGradient id="paint0_linear_2_197" x1="258.78" y1="25.8356" x2="258.78" y2="496.524" gradientUnits="userSpaceOnUse">
<stop stop-color="#35D3FC"/>
<stop offset="0.5" stop-color="#33C1FB"/>
<stop offset="1" stop-color="#31AEFA"/>
</linearGradient>
<linearGradient id="paint1_linear_2_197" x1="260.747" y1="124.147" x2="260.747" y2="372.735" gradientUnits="userSpaceOnUse">
<stop stop-color="white"/>
<stop offset="0.5" stop-color="#F3F3F3"/>
<stop offset="1" stop-color="#E6E6E6"/>
</linearGradient>
</defs>
</svg>
